Coordinates
version=1
nRows=24
nColumns=22
inDegrees=yes

Units are S.I. units (second, meters, Newtons, ...)
If the header above contains a line with 'inDegrees', this indicates whether rotational values are in degrees (yes) or radians (no).

endheader
time	pelvis_tilt	pelvis_list	pelvis_rotation	pelvis_tx	pelvis_ty	pelvis_tz	hip_flexion_r	hip_adduction_r	hip_rotation_r	knee_angle_r	ankle_angle_r	subtalar_angle_r	hip_flexion_l	hip_adduction_l	hip_rotation_l	knee_angle_l	ankle_angle_l	subtalar_angle_l	lumbar_extension	lumbar_bending	lumbar_rotation
      2.57000000	      3.87240367	      0.65861133	    -43.61919700	     -0.19205367	      1.00461154	     -0.19378990	     25.41766283	     -6.67246743	    -17.88804977	    -38.13022701	     10.59840887	      0.24012003	     -8.04465716	      3.76177436	     -6.63462255	     -7.23952772	     13.42496195	      2.62701089	     -8.90212526	     -5.47081101	     -5.21995232
      2.58000000	      3.86729396	      0.65826671	    -43.81924659	     -0.18616642	      1.00335905	     -0.18826774	     25.64734435	     -6.45226263	    -18.50007734	    -35.70870514	     10.68770470	      0.48518237	     -8.69270142	      3.82547022	     -6.86361686	     -6.98280509	     13.74553272	      2.59869896	     -8.93478991	     -5.43645871	     -5.33876942
      2.59000000	      3.85781424	      0.67988146	    -44.00180668	     -0.18030521	      1.00198213	     -0.18267244	     25.85528669	     -6.22396655	    -19.10800021	    -33.25972313	     10.73267032	      0.80443258	     -9.30571692	      3.89493633	     -7.08494223	     -6.75990149	     14.08776934	      2.59928188	     -8.94807593	     -5.40859724	     -5.45978468
      2.60000000	      3.83422964	      0.72189035	    -44.16844961	     -0.17446865	      1.00047995	     -0.17697686	     26.05245476	     -5.97949319	    -19.70520839	    -30.80432880	     10.74300191	      1.19480036	     -9.87871217	      3.95963030	     -7.29658958	     -6.56974524	     14.44920292	      2.62759817	     -8.93127306	     -5.38306602	     -5.58492130
      2.61000000	      3.80282899	      0.77878075	    -44.31644799	     -0.16865500	      0.99888130	     -0.17118539	     26.23358806	     -5.72195370	    -20.27697375	    -28.36109998	     10.72299930	      1.66160046	    -10.41501475	      4.01870510	     -7.49003696	     -6.42439315	     14.82363583	      2.68926013	     -8.89598575	     -5.36051695	     -5.71617242
      2.62000000	      3.74132177	      0.85652690	    -44.44419568	     -0.16285499	      0.99716833	     -0.16528547	     26.42461737	     -5.44583538	    -20.82495049	    -25.95380106	     10.66102180	      2.15884276	    -10.89296561	      4.05832341	     -7.67630182	     -6.32427456	     15.21602327	      2.76528468	     -8.81563898	     -5.32726006	     -5.85093095
      2.63000000	      3.67917012	      0.94014781	    -44.54986481	     -0.15705214	      0.99540825	     -0.15930323	     26.59577693	     -5.17101396	    -21.33503042	    -23.60766084	     10.58892370	      2.73362618	    -11.34367302	      4.09062969	     -7.83064015	     -6.27536038	     15.60715481	      2.89276327	     -8.73401052	     -5.29205386	     -5.97580491
      2.64000000	      3.57602104	      1.05427842	    -44.63374860	     -0.15122820	      0.99354076	     -0.15322010	     26.80598188	     -4.89391046	    -21.80743039	    -21.35674230	     10.45727100	      3.23573652	    -11.71838715	      4.10311972	     -7.99348262	     -6.27661603	     16.00844110	      2.99982430	     -8.58800051	     -5.23849962	     -6.12317576
      2.65000000	      3.47013678	      1.16899371	    -44.69746237	     -0.14539848	      0.99166308	     -0.14702341	     27.00039488	     -4.62383151	    -22.22434999	    -19.21534081	     10.31521020	      3.79863044	    -12.08397950	      4.10238238	     -8.09427751	     -6.30214297	     16.39403901	      3.18180832	     -8.44200204	     -5.18101112	     -6.25039572
      2.66000000	      3.33485738	      1.29958957	    -44.72631820	     -0.13952568	      0.98974293	     -0.14074567	     27.21733054	     -4.37197078	    -22.61495262	    -17.21948491	     10.13678834	      4.22953755	    -12.37547901	      4.07394464	     -8.21784607	     -6.41149561	     16.77154072	      3.31999172	     -8.26179926	     -5.10083791	     -6.40765897
      2.67000000	      3.20633805	      1.42670345	    -44.73640718	     -0.13361511	      0.98785661	     -0.13433768	     27.41887841	     -4.14953010	    -22.94621987	    -15.39696213	      9.95209872	      4.67768020	    -12.67846537	      4.03700730	     -8.27532269	     -6.52801040	     17.12349209	      3.54188207	     -8.09109451	     -5.01999933	     -6.56063459
      2.68000000	      3.05847709	      1.55953755	    -44.70876569	     -0.12762845	      0.98598487	     -0.12782750	     27.63272732	     -3.96235827	    -23.25888648	    -13.77583793	      9.75809853	      4.98444656	    -12.92831173	      3.97074566	     -8.32376268	     -6.72319840	     17.42441554	      3.71482258	     -7.90198925	     -4.91831497	     -6.72374811
      2.69000000	      2.92469655	      1.67666737	    -44.65229454	     -0.12154377	      0.98419649	     -0.12118122	     27.81962403	     -3.82185922	    -23.52773108	    -12.38196260	      9.58064555	      5.26977093	    -13.20305700	      3.88951052	     -8.31269675	     -6.93239088	     17.68671206	      3.96369504	     -7.73615976	     -4.80636436	     -6.90019742
      2.70000000	      2.80310777	      1.78350864	    -44.56382423	     -0.11534348	      0.98249528	     -0.11439444	     27.98911862	     -3.73813033	    -23.76422625	    -11.24230881	      9.42452923	      5.48894712	    -13.48940648	      3.79323810	     -8.24531954	     -7.17128891	     17.89262417	      4.25710619	     -7.58698835	     -4.68706554	     -7.08898187
      2.71000000	      2.69663824	      1.89471282	    -44.44706220	     -0.10900726	      0.98088100	     -0.10747125	     28.15653614	     -3.72778087	    -23.96084062	    -10.38134645	      9.26015246	      5.61422152	    -13.78749997	      3.69884937	     -8.09312329	     -7.42186559	     18.01867823	      4.52029418	     -7.44297844	     -4.57190329	     -7.28537890
      2.72000000	      2.61946956	      1.95903037	    -44.28508838	     -0.10249528	      0.97943529	     -0.10035069	     28.25722017	     -3.77087101	    -24.16793304	     -9.79958918	      9.20411266	      5.70166598	    -14.12434768	      3.56442322	     -7.91934205	     -7.73597276	     18.08874007	      4.95950820	     -7.34945833	     -4.43499275	     -7.51055575
      2.73000000	      2.55884551	      2.04812672	    -44.09502165	     -0.09581837	      0.97808205	     -0.09307889	     28.36913148	     -3.90419290	    -24.33600078	     -9.50505408	      9.08628969	      5.70616650	    -14.47093221	      3.45006052	     -7.62081629	     -8.03806716	     18.04425400	      5.27777080	     -7.23884374	     -4.32001447	     -7.74599794
      2.74000000	      2.52592187	      2.10503862	    -43.86301512	     -0.08896127	      0.97689882	     -0.08561172	     28.43276262	     -4.09950555	    -24.52002230	     -9.49994918	      9.02347041	      5.64682194	    -14.84972087	      3.30681661	     -7.25970198	     -8.38814184	     17.92412603	      5.71113485	     -7.16427314	     -4.19118396	     -8.01653381
      2.75000000	      2.51865021	      2.14470300	    -43.60113609	     -0.08194290	      0.97588473	     -0.07791245	     28.43723238	     -4.34362138	    -24.69173824	     -9.71807848	      8.96118114	      5.49879619	    -15.24205505	      3.14358168	     -6.86549492	     -8.79591421	     17.73047156	      6.28431253	     -7.10693082	     -4.06483426	     -8.28701048
      2.76000000	      2.52198555	      2.19840092	    -43.29940722	     -0.07472642	      0.97502101	     -0.07001895	     28.43767792	     -4.66356865	    -24.90088329	    -10.18776506	      8.80866813	      5.33947482	    -15.64815145	      2.98315424	     -6.33481982	     -9.18706504	     17.38380785	      6.72696126	     -7.02540089	     -3.94708864	     -8.60420376
      2.77000000	      2.54695599	      2.21900663	    -42.97956113	     -0.06739037	      0.97436292	     -0.06184440	     28.37352745	     -5.00486215	    -25.17618792	    -10.84615742	      8.59832781	      5.01228490	    -16.06390020	      2.78374854	     -5.82266847	     -9.65249055	     16.98080600	      7.41011466	     -6.96624783	     -3.82361553	     -8.91585155
      2.78000000	      2.56500072	      2.25468590	    -42.62010145	     -0.05989139	      0.97388178	     -0.05344844	     28.28421474	     -5.38549602	    -25.49669172	    -11.63551315	      8.29358211	      4.77082364	    -16.45995526	      2.57258773	     -5.15275522	    -10.13073196	     16.38660291	      7.88567099	     -6.86377921	     -3.70348327	     -9.25693062
      2.79000000	      2.59279158	      2.23785438	    -42.26650700	     -0.05231579	      0.97363917	     -0.04471528	     28.12223477	     -5.74023731	    -25.93134617	    -12.54387884	      7.88660364	      4.21752427	    -16.86503181	      2.30262370	     -4.55639423	    -10.68515465	     15.76295630	      8.68979920	     -6.78350629	     -3.55937164	     -9.55781802
      2.80000000	      2.60996727	      2.21811409	    -41.89490706	     -0.04461807	      0.97360412	     -0.03573244	     27.93393773	     -6.10523640	    -26.47013016	    -13.53626341	      7.39803561	      3.73563507	    -17.24657900	      2.00840444	     -3.86568993	    -11.26719588	     14.98842081	      9.34207224	     -6.66807440	     -3.40619261	     -9.87065384
